<?xml version="1.0" encoding="utf-8"?>
<!-- Generator: Adobe Illustrator 19.2.0, SVG Export Plug-In . SVG Version: 6.00 Build 0)  -->
<svg version="1.1" id="Слой_1" xmlns="http://www.w3.org/2000/svg" xmlns:xlink="http://www.w3.org/1999/xlink" x="0px" y="0px"
	 viewBox="0 0 40 40" style="enable-background:new 0 0 40 40;" xml:space="preserve">
<style type="text/css">
	.st0{fill:#26A8EC;}
</style>
<g>
	<g>
		<path class="st0" d="M35.6,29.9c2-2.9,3.1-6.3,3.1-9.8c0-9.8-8.4-17.8-18.7-17.8c-10.3,0-18.7,8-18.7,17.8
			c0,9.8,8.4,17.8,18.7,17.8c3.7,0,7.2-1,10.3-3l1.9,1.9c0.5,0.6,1.4,1,2.3,1.1c0.2,0,0.3,0,0.5,0c0.9,0,1.7-0.3,2.3-0.7
			c0.8-0.6,1.2-1.5,1.3-2.6c0-1.1-0.3-2.1-1-2.7L35.6,29.9z M32.2,15.5c-0.3-0.2-0.6-0.4-0.9-0.6c0,0-0.1-0.1-0.1-0.1
			c-0.3-0.2-0.6-0.4-0.9-0.5c-0.1,0-0.1-0.1-0.2-0.1c-0.3-0.1-0.6-0.3-0.9-0.4c-0.1,0-0.2-0.1-0.3-0.1c-0.3-0.1-0.5-0.2-0.8-0.3
			c-0.1,0-0.3-0.1-0.5-0.1c-0.2-0.1-0.5-0.1-0.7-0.1c-0.2,0-0.4-0.1-0.6-0.1c-0.2,0-0.4,0-0.6-0.1c-0.2,0-0.4,0-0.6,0
			c-0.2,0-0.4,0-0.5,0c-0.1,0-0.3,0-0.4,0c-0.1,0-0.2,0-0.3,0c-0.2,0-0.3,0-0.5,0c-0.3,0-0.5,0.1-0.8,0.1c-0.1,0-0.2,0-0.3,0.1
			c-0.3,0.1-0.6,0.1-0.9,0.2c0,0-0.1,0-0.1,0c-1.8,0.5-3.4,1.4-4.7,2.6c-0.1,0.1-0.2,0.2-0.3,0.3c0,0,0,0,0,0
			c-0.1,0.1-0.3,0.3-0.4,0.4c-0.2,0.2-0.3,0.3-0.5,0.5c0,0,0,0-0.1,0.1c-0.5,0.6-0.9,1.1-1.2,1.8c0,0.1-0.1,0.1-0.1,0.2
			c-0.1,0.3-0.3,0.5-0.4,0.8c0,0.1-0.1,0.2-0.1,0.3c-0.1,0.2-0.2,0.4-0.2,0.6c0,0.1-0.1,0.3-0.1,0.4c-0.1,0.2-0.1,0.4-0.1,0.6
			c0,0.2-0.1,0.3-0.1,0.5c0,0.2-0.1,0.3-0.1,0.5c0,0.2-0.1,0.4-0.1,0.5c0,0.1,0,0.2,0,0.3c0,0.4,0,0.8,0,1.3c0,0.2,0,0.3,0,0.5
			c0,0.2,0,0.3,0.1,0.5c0,0.2,0,0.4,0.1,0.5c0,0.2,0.1,0.3,0.1,0.4c0,0.2,0.1,0.4,0.2,0.6c0,0.1,0.1,0.2,0.1,0.4
			c0.1,0.3,0.2,0.5,0.3,0.7c0,0.1,0.1,0.2,0.1,0.2c0.4,0.9,0.9,1.9,1.6,2.7c0,0,0.1,0.1,0.1,0.1c0.1,0.1,0.2,0.2,0.3,0.3
			c0.2,0.2,0.3,0.4,0.5,0.5c0,0,0.1,0.1,0.1,0.1c0.1,0.1,0.1,0.1,0.2,0.2c0.2,0.2,0.3,0.3,0.5,0.5c0.1,0.1,0.2,0.2,0.3,0.3
			c0.2,0.2,0.4,0.3,0.7,0.5c0.1,0,0.1,0.1,0.2,0.1C10.7,33.3,5,27.3,5,20.1C5,12.2,11.7,5.8,20,5.8c7.6,0,13.8,5.4,14.8,12.3
			c0-0.1-0.1-0.1-0.1-0.2c-0.1-0.2-0.3-0.4-0.4-0.5c-0.1-0.1-0.2-0.2-0.2-0.3c-0.2-0.3-0.5-0.5-0.7-0.8c0,0,0,0,0,0
			C32.9,16.1,32.6,15.8,32.2,15.5C32.3,15.5,32.2,15.5,32.2,15.5L32.2,15.5z M2.6,20.1c0-9.2,7.8-16.6,17.4-16.6
			c9.6,0,17.4,7.5,17.4,16.6c0,1.5-0.2,3-0.6,4.5v0c0-0.3,0-0.7-0.1-1c0-0.1,0-0.2,0-0.3c0-0.2-0.1-0.5-0.1-0.7c0-0.1,0-0.2-0.1-0.4
			c-0.1-0.2-0.1-0.5-0.2-0.7c0-0.1-0.1-0.2-0.1-0.3c0-0.1-0.1-0.2-0.1-0.3c0-0.3,0-0.5,0-0.8c0-8.5-7.3-15.5-16.2-15.5
			S3.8,11.6,3.8,20.1S11.1,35.6,20,35.6c0.3,0,0.5,0,0.8,0c1.2,0.4,2.6,0.6,3.9,0.6c-1.5,0.4-3.1,0.6-4.6,0.6
			C10.4,36.8,2.6,29.3,2.6,20.1L2.6,20.1z M36.6,36.3c-0.5,0.4-1.2,0.5-1.9,0.5c-0.7-0.1-1.2-0.3-1.5-0.7l-1.8-1.8h0l-0.9-0.9
			L30,33.6c-0.3,0.1-0.6,0.3-0.8,0.4c-0.2,0.1-0.4,0.1-0.5,0.2c-0.1,0-0.2,0.1-0.3,0.1c-0.3,0.1-0.5,0.2-0.8,0.2c0,0,0,0,0,0
			c-2.2,0.6-4.5,0.4-6.6-0.3c-0.3-0.1-0.6-0.2-0.9-0.3c-0.1,0-0.1-0.1-0.2-0.1c-0.3-0.1-0.6-0.3-0.9-0.5c-0.1-0.1-0.2-0.1-0.3-0.2
			c-0.2-0.1-0.4-0.3-0.6-0.4c0,0-0.1-0.1-0.1-0.1c-0.1,0-0.1-0.1-0.2-0.2c-0.2-0.2-0.4-0.3-0.6-0.5c-0.1-0.1-0.2-0.2-0.3-0.3
			c-0.2-0.2-0.3-0.3-0.4-0.5c-0.1-0.1-0.2-0.2-0.2-0.3c-0.7-0.8-1.2-1.6-1.6-2.5c0,0,0-0.1,0-0.1c-0.1-0.3-0.2-0.5-0.3-0.8
			c0-0.1,0-0.2-0.1-0.2c-0.1-0.2-0.1-0.4-0.2-0.7c0-0.1,0-0.2-0.1-0.3c0-0.2-0.1-0.4-0.1-0.6c0-0.1,0-0.2,0-0.3c0-0.2,0-0.4,0-0.6
			c0-0.1,0-0.2,0-0.3c0-0.3,0-0.6,0-0.9c0-0.1,0-0.2,0-0.3c0-0.2,0.1-0.4,0.1-0.6c0-0.1,0-0.2,0.1-0.3c0-0.2,0.1-0.4,0.2-0.6
			c0-0.1,0.1-0.2,0.1-0.3c0.1-0.2,0.2-0.4,0.2-0.7c0-0.1,0.1-0.1,0.1-0.2c0.1-0.3,0.2-0.5,0.4-0.8c0,0,0-0.1,0-0.1
			c0.3-0.6,0.7-1.1,1.1-1.7c0.1-0.2,0.3-0.3,0.4-0.5c0.1-0.1,0.2-0.2,0.3-0.4c0.2-0.1,0.3-0.3,0.5-0.4c0.6-0.5,1.2-0.9,1.8-1.3
			c0.1-0.1,0.2-0.1,0.3-0.2c0.2-0.1,0.4-0.2,0.6-0.3c0.1-0.1,0.3-0.1,0.4-0.2c0.2-0.1,0.4-0.1,0.5-0.2c0.2-0.1,0.3-0.1,0.5-0.2
			c0.2,0,0.3-0.1,0.5-0.1c0.2,0,0.4-0.1,0.6-0.1c0.2,0,0.3,0,0.5-0.1c0.2,0,0.4-0.1,0.7-0.1c0.2,0,0.3,0,0.5,0c0.2,0,0.5,0,0.7,0
			c0.1,0,0.3,0,0.4,0c0.3,0,0.5,0,0.8,0.1c0.1,0,0.2,0,0.2,0c0.3,0.1,0.6,0.1,0.9,0.2c0,0,0.1,0,0.1,0c0.4,0.1,0.7,0.2,1,0.3
			c0,0,0,0,0,0c0.7,0.3,1.4,0.6,2,1c0,0,0,0,0,0c0.3,0.2,0.6,0.4,0.9,0.6c0,0,0.1,0,0.1,0.1c0.3,0.2,0.6,0.5,0.8,0.7c0,0,0,0,0,0
			c0.2,0.2,0.5,0.5,0.7,0.8c0.1,0.1,0.1,0.2,0.2,0.3c0.2,0.2,0.3,0.4,0.4,0.6c0.1,0.1,0.1,0.2,0.2,0.3c0.2,0.3,0.3,0.6,0.5,0.9
			c0,0.1,0.1,0.1,0.1,0.2c0.1,0.3,0.2,0.5,0.3,0.8c0.5,1.2,0.7,2.5,0.7,3.8c0,1.1-0.2,2.2-0.6,3.3c-0.2,0.5-0.4,1.1-0.7,1.6
			l-0.2,0.4l0.9,0.9l1.9,1.8c0.4,0.4,0.7,1.1,0.6,1.8C37.4,35,37.3,35.8,36.6,36.3L36.6,36.3z M36.6,36.3"/>
	</g>
	<path class="st0" d="M33.7,33.8c0,0.3-0.3,0.6-0.6,0.6c-0.3,0-0.6-0.3-0.6-0.6c0-0.3,0.3-0.6,0.6-0.6
		C33.4,33.2,33.7,33.5,33.7,33.8L33.7,33.8z M33.7,33.8"/>
	<path class="st0" d="M36.2,33.8c0,0.3-0.3,0.6-0.6,0.6s-0.6-0.3-0.6-0.6c0-0.3,0.3-0.6,0.6-0.6S36.2,33.5,36.2,33.8L36.2,33.8z
		 M36.2,33.8"/>
	<path class="st0" d="M34.9,32.6c0,0.3-0.3,0.6-0.6,0.6c-0.3,0-0.6-0.3-0.6-0.6c0-0.3,0.3-0.6,0.6-0.6C34.7,32,34.9,32.3,34.9,32.6
		L34.9,32.6z M34.9,32.6"/>
	<path class="st0" d="M34.9,35c0,0.3-0.3,0.6-0.6,0.6c-0.3,0-0.6-0.3-0.6-0.6c0-0.3,0.3-0.6,0.6-0.6C34.7,34.4,34.9,34.6,34.9,35
		L34.9,35z M34.9,35"/>
	<path class="st0" d="M12.5,11.2c-0.3,0-0.6,0.3-0.6,0.6v2.4c0,0.3,0.3,0.6,0.6,0.6c0.3,0,0.6-0.3,0.6-0.6v-2.4
		C13.1,11.5,12.9,11.2,12.5,11.2L12.5,11.2z M12.5,11.2"/>
	<path class="st0" d="M9.8,17.9c-0.2-0.2-0.6-0.2-0.9,0l-1.6,1.5c-0.2,0.2-0.2,0.6,0,0.8c0.1,0.1,0.3,0.2,0.4,0.2
		c0.2,0,0.3-0.1,0.4-0.2l1.6-1.5C10.1,18.5,10.1,18.1,9.8,17.9L9.8,17.9z M9.8,17.9"/>
	<path class="st0" d="M20.4,9c-0.2-0.2-0.6-0.2-0.9,0c-0.2,0.2-0.2,0.6,0,0.8l1.2,1.2c0.1,0.1,0.3,0.2,0.4,0.2
		c0.2,0,0.3-0.1,0.4-0.2c0.2-0.2,0.2-0.6,0-0.8L20.4,9z M20.4,9"/>
	<path class="st0" d="M10.1,23.9l-1.2,1.8c-0.2,0.3-0.1,0.6,0.2,0.8c0.1,0.1,0.2,0.1,0.3,0.1c0.2,0,0.4-0.1,0.5-0.3l1.2-1.8
		c0.2-0.3,0.1-0.6-0.2-0.8C10.7,23.6,10.3,23.7,10.1,23.9L10.1,23.9z M10.1,23.9"/>
	<path class="st0" d="M21.9,20.7c1.4,0,2.5-1.1,2.5-2.4c0-1.3-1.1-2.4-2.5-2.4c-1.4,0-2.5,1.1-2.5,2.4
		C19.4,19.6,20.5,20.7,21.9,20.7L21.9,20.7z M21.9,17.1c0.7,0,1.2,0.5,1.2,1.2c0,0.7-0.6,1.2-1.2,1.2c-0.7,0-1.2-0.5-1.2-1.2
		C20.6,17.7,21.2,17.1,21.9,17.1L21.9,17.1z M21.9,17.1"/>
	<path class="st0" d="M31.7,27.9c-0.9-0.9-2.6-0.9-3.5,0c-0.5,0.4-0.7,1-0.7,1.7c0,0.6,0.3,1.2,0.7,1.7c0.5,0.5,1.1,0.7,1.8,0.7
		c0.7,0,1.3-0.2,1.8-0.7c0.5-0.4,0.7-1,0.7-1.7C32.4,29,32.2,28.4,31.7,27.9L31.7,27.9z M30.8,30.5c-0.5,0.4-1.3,0.4-1.8,0
		c-0.2-0.2-0.4-0.5-0.4-0.8c0-0.3,0.1-0.6,0.4-0.8c0.2-0.2,0.5-0.3,0.9-0.3c0.3,0,0.6,0.1,0.9,0.3c0.2,0.2,0.4,0.5,0.4,0.8
		C31.2,29.9,31.1,30.2,30.8,30.5L30.8,30.5z M30.8,30.5"/>
	<path class="st0" d="M28.1,23.3c0.1,0.1,0.2,0.3,0.3,0.3c0.1,0,0.2,0,0.2,0h3.1c0.3,0,0.6-0.3,0.6-0.6c0-0.3-0.3-0.6-0.6-0.6h-1.6
		l0.8-0.8c0.2-0.2,0.2-0.6,0-0.8c-0.2-0.2-0.6-0.2-0.9,0l-1.9,1.8c-0.1,0.1-0.1,0.1-0.1,0.2C28.1,23,28.1,23.2,28.1,23.3L28.1,23.3z
		 M28.1,23.3"/>
	<path class="st0" d="M20,27.2h-1.9c-0.3,0-0.6,0.3-0.6,0.6c0,0.3,0.3,0.6,0.6,0.6h1.2v1.8c0,0.3,0.3,0.6,0.6,0.6
		c0.3,0,0.6-0.3,0.6-0.6v-2.4C20.6,27.5,20.3,27.2,20,27.2L20,27.2z M20,27.2"/>
	<path class="st0" d="M22.5,25.5c0.2,0,0.3-0.1,0.4-0.2l1.2-1.2c0.2-0.2,0.2-0.6,0-0.8c-0.2-0.2-0.6-0.2-0.9,0L22,24.5
		c-0.2,0.2-0.2,0.6,0,0.8C22.2,25.4,22.3,25.5,22.5,25.5L22.5,25.5z M22.5,25.5"/>
	<path class="st0" d="M25,26.7c0.3,0,0.6-0.3,0.6-0.6v-1.8c0-0.3-0.3-0.6-0.6-0.6c-0.3,0-0.6,0.3-0.6,0.6v1.8
		C24.3,26.4,24.6,26.7,25,26.7L25,26.7z M25,26.7"/>
	<path class="st0" d="M24.2,27.4l-1.2-1.2c-0.2-0.2-0.6-0.2-0.9,0c-0.2,0.2-0.2,0.6,0,0.8l1.2,1.2c0.1,0.1,0.3,0.2,0.4,0.2
		c0.2,0,0.3-0.1,0.4-0.2C24.4,28,24.4,27.7,24.2,27.4L24.2,27.4z M24.2,27.4"/>
	<path class="st0" d="M25.8,26.8L24.5,28c-0.2,0.2-0.2,0.6,0,0.8C24.7,29,24.8,29,25,29c0.2,0,0.3-0.1,0.4-0.2l1.2-1.2
		c0.2-0.2,0.2-0.6,0-0.8C26.4,26.6,26,26.6,25.8,26.8L25.8,26.8z M25.8,26.8"/>
	<path class="st0" d="M27.5,23.7c0-0.3-0.3-0.6-0.6-0.6c-0.3,0-0.6,0.3-0.6,0.6v1.8c0,0.3,0.3,0.6,0.6,0.6c0.3,0,0.6-0.3,0.6-0.6
		V23.7z M27.5,23.7"/>
	<path class="st0" d="M23.7,22.5c0,0.3,0.3,0.6,0.6,0.6h1.2c0.3,0,0.6-0.3,0.6-0.6c0-0.3-0.3-0.6-0.6-0.6h-1.2
		C24,21.9,23.7,22.2,23.7,22.5L23.7,22.5z M23.7,22.5"/>
	<path class="st0" d="M21.5,26.6c0.3-0.1,0.4-0.5,0.3-0.8l-0.6-1.2c-0.2-0.3-0.5-0.4-0.8-0.3c-0.3,0.1-0.4,0.5-0.3,0.8l0.6,1.2
		c0.1,0.2,0.3,0.3,0.6,0.3C21.3,26.7,21.4,26.6,21.5,26.6L21.5,26.6z M21.5,26.6"/>
	<path class="st0" d="M22.9,22.9c0.2-0.2,0.2-0.6,0-0.8c-0.2-0.2-0.6-0.2-0.9,0l-0.6,0.6c-0.2,0.2-0.2,0.6,0,0.8
		c0.1,0.1,0.3,0.2,0.4,0.2c0.2,0,0.3-0.1,0.4-0.2L22.9,22.9z M22.9,22.9"/>
	<path class="st0" d="M22.5,27.8h-0.6c-0.3,0-0.6,0.3-0.6,0.6c0,0.3,0.3,0.6,0.6,0.6h0.6c0.3,0,0.6-0.3,0.6-0.6
		C23.1,28.1,22.8,27.8,22.5,27.8L22.5,27.8z M22.5,27.8"/>
</g>
</svg>
