<?xml version="1.0" encoding="utf-8"?>
<!-- Generator: Adobe Illustrator 19.2.0, SVG Export Plug-In . SVG Version: 6.00 Build 0)  -->
<svg version="1.1" id="Слой_1" xmlns="http://www.w3.org/2000/svg" xmlns:xlink="http://www.w3.org/1999/xlink" x="0px" y="0px"
	 viewBox="0 0 72 72" style="enable-background:new 0 0 72 72;" xml:space="preserve">
<style type="text/css">
	.st0{fill:#FFFFFF;stroke:#5DB3EA;stroke-miterlimit:10;}
	.st1{fill:#FFFFFF;stroke:#F9C551;stroke-miterlimit:10;}
	.st2{fill:#F9C551;}
	.st3{fill:#FFFFFF;stroke:#000000;stroke-miterlimit:10;}
	.st4{fill:#5DB3EA;}
	.st5{fill:#3D3D3D;}
</style>
<circle class="st0" cx="35.8" cy="36" r="33.5"/>
<circle class="st1" cx="35.8" cy="36" r="31.8"/>
<g>
	<circle class="st2" cx="36.8" cy="27.9" r="5.2"/>
	<path class="st3" d="M35.7,25.1l1.3,0.3l1.7,1.2l0.6,7.4l0.8,0.6l6.9-0.2l2.3,1.7l0,3.5L47.6,49L46.1,51l-4.4,0.2l-10.8-0.5
		c0,0-2.1-1.2-2.1-1.3s-0.1-10.6-0.1-10.6l0-2.6l3.1-1.1l2.2-2.6l0.5-3.9l0-3.4L35.7,25.1z"/>
	<g>
		<path class="st4" d="M28.2,50.7h-5.4c-0.2,0-0.3-0.1-0.3-0.3V36.3c0-0.2,0.1-0.3,0.3-0.3h5.4c0.2,0,0.3,0.1,0.3,0.3v14.2
			C28.5,50.6,28.4,50.7,28.2,50.7L28.2,50.7z M28.2,50.7"/>
		<path class="st5" d="M37.6,20.9v-6.1c0-0.4-0.3-0.7-0.7-0.7c-0.4,0-0.7,0.3-0.7,0.7v6.1c0,0.4,0.3,0.7,0.7,0.7
			C37.3,21.6,37.6,21.3,37.6,20.9L37.6,20.9z M37.6,20.9"/>
		<path class="st5" d="M49.6,27.8h-6.1c-0.4,0-0.7,0.3-0.7,0.7c0,0.4,0.3,0.7,0.7,0.7h6.1c0.4,0,0.7-0.3,0.7-0.7
			C50.3,28.2,50,27.8,49.6,27.8L49.6,27.8z M49.6,27.8"/>
		<path class="st5" d="M23.5,28.5c0,0.4,0.3,0.7,0.7,0.7h6.1c0.4,0,0.7-0.3,0.7-0.7c0-0.4-0.3-0.7-0.7-0.7h-6.1
			C23.8,27.8,23.5,28.2,23.5,28.5L23.5,28.5z M23.5,28.5"/>
		<path class="st5" d="M27.3,18.8c0.1-0.1,0.2-0.3,0.2-0.5c0-0.2-0.1-0.4-0.2-0.5c-0.1-0.1-0.3-0.2-0.5-0.2c-0.2,0-0.4,0.1-0.5,0.2
			c-0.1,0.1-0.2,0.3-0.2,0.5c0,0.2,0.1,0.4,0.2,0.5c0.1,0.1,0.3,0.2,0.5,0.2C27,19,27.2,19,27.3,18.8L27.3,18.8z M27.3,18.8"/>
		<path class="st5" d="M30.2,21.7c0.3-0.3,0.3-0.7,0-1c-0.3-0.3-0.7-0.3-1,0c-0.3,0.3-0.3,0.7,0,1c0.1,0.1,0.3,0.2,0.5,0.2
			C29.9,21.9,30.1,21.8,30.2,21.7L30.2,21.7z M30.2,21.7"/>
		<path class="st5" d="M28.8,20.3c0.3-0.3,0.3-0.7,0-1c-0.3-0.3-0.7-0.3-1,0c-0.3,0.3-0.3,0.7,0,1c0.1,0.1,0.3,0.2,0.5,0.2
			C28.4,20.5,28.6,20.4,28.8,20.3L28.8,20.3z M28.8,20.3"/>
		<path class="st5" d="M31.6,23.1c0.1-0.1,0.2-0.3,0.2-0.5c0-0.2-0.1-0.4-0.2-0.5C31.5,22,31.3,22,31.1,22c-0.2,0-0.4,0.1-0.5,0.2
			c-0.1,0.1-0.2,0.3-0.2,0.5c0,0.2,0.1,0.4,0.2,0.5c0.1,0.1,0.3,0.2,0.5,0.2C31.3,23.3,31.5,23.3,31.6,23.1L31.6,23.1z M31.6,23.1"
			/>
		<path class="st5" d="M46.8,19.3c0.1-0.1,0.2-0.3,0.2-0.5c0-0.2-0.1-0.4-0.2-0.5c-0.1-0.1-0.3-0.2-0.5-0.2c-0.2,0-0.4,0.1-0.5,0.2
			c-0.1,0.1-0.2,0.3-0.2,0.5c0,0.2,0.1,0.4,0.2,0.5c0.1,0.1,0.3,0.2,0.5,0.2C46.5,19.5,46.7,19.4,46.8,19.3L46.8,19.3z M46.8,19.3"
			/>
		<path class="st5" d="M43.5,22.4c0.2,0,0.4-0.1,0.5-0.2c0.3-0.3,0.3-0.7,0-1c-0.3-0.3-0.7-0.3-1,0c-0.3,0.3-0.3,0.7,0,1
			C43.1,22.3,43.3,22.4,43.5,22.4L43.5,22.4z M43.5,22.4"/>
		<path class="st5" d="M45.4,20.7c0.3-0.3,0.3-0.7,0-1c-0.3-0.3-0.7-0.3-1,0c-0.3,0.3-0.3,0.7,0,1c0.1,0.1,0.3,0.2,0.5,0.2
			C45.1,20.9,45.3,20.8,45.4,20.7L45.4,20.7z M45.4,20.7"/>
		<path class="st5" d="M42.5,23.6c0.1-0.1,0.2-0.3,0.2-0.5c0-0.2-0.1-0.4-0.2-0.5c-0.1-0.1-0.3-0.2-0.5-0.2c-0.2,0-0.4,0.1-0.5,0.2
			c-0.1,0.1-0.2,0.3-0.2,0.5c0,0.2,0.1,0.4,0.2,0.5c0.1,0.1,0.3,0.2,0.5,0.2C42.2,23.8,42.4,23.7,42.5,23.6L42.5,23.6z M42.5,23.6"
			/>
		<path class="st5" d="M48.5,48l1.6-10.4c0,0,0-0.1,0-0.1c0-2.2-1.8-3.9-3.9-3.9h-6.1v-4.4c0-1.9-0.5-3.2-1.6-4
			c-1.7-1.2-4-0.5-4.1-0.5c-0.3,0.1-0.5,0.4-0.5,0.7v4.9c0,3.9-4.5,5.2-4.7,5.3c-0.1,0-0.2,0.1-0.2,0.1c-0.2-0.3-0.6-0.5-1-0.5h-4.8
			c-0.7,0-1.3,0.6-1.3,1.3v13.6c0,0.7,0.6,1.3,1.3,1.3h4.8c0.5,0,0.9-0.3,1.1-0.6c0.7,0.7,1.7,1.1,2.7,1.1h12.1
			C46.5,51.9,48.2,50.5,48.5,48L48.5,48z M27.8,50h-4.6V36.7h4.6V50z M29.2,47.9V37c0.1,0,0.2,0,0.3,0c0.2-0.1,5.7-1.7,5.7-6.6V26
			c0.6-0.1,1.6-0.1,2.4,0.4c0.7,0.5,1,1.5,1,2.9v5.1c0,0.4,0.3,0.7,0.7,0.7h6.8c1.4,0,2.5,1.1,2.5,2.5l-1.6,10.3v0
			c-0.2,1.7-1.3,2.6-3.3,2.6H31.8C30.4,50.5,29.2,49.3,29.2,47.9L29.2,47.9z M29.2,47.9"/>
	</g>
</g>
</svg>
