<?xml version="1.0" encoding="utf-8"?>
<!-- Generator: Adobe Illustrator 19.2.0, SVG Export Plug-In . SVG Version: 6.00 Build 0)  -->
<svg version="1.1" id="Слой_1" xmlns="http://www.w3.org/2000/svg" xmlns:xlink="http://www.w3.org/1999/xlink" x="0px" y="0px"
	 viewBox="0 0 72 72" style="enable-background:new 0 0 72 72;" xml:space="preserve">
<style type="text/css">
	.st0{fill:#FFFFFF;stroke:#5DB3EA;stroke-miterlimit:10;}
	.st1{fill:#FFFFFF;stroke:#F9C551;stroke-miterlimit:10;}
	.st2{fill:#5DB3EA;stroke:#000000;stroke-miterlimit:10;}
	.st3{fill:#F9C551;stroke:#000000;stroke-miterlimit:10;}
	.st4{fill:#3D3D3D;}
</style>
<circle class="st0" cx="36" cy="36" r="33.5"/>
<circle class="st1" cx="36" cy="36" r="31.8"/>
<g>
	<polygon class="st2" points="43.1,26.4 47.6,26 47.9,34.2 54.6,34.4 57.5,36.4 57.5,37.8 54.3,37.8 54.4,39.7 57.3,39.9 57.2,44.2 
		52.7,44.4 51,41.5 48.8,40.7 46.6,42.1 45.4,44.2 42.9,44.3 	"/>
	<polygon class="st3" points="17.2,24.6 17.2,38.5 42.7,38.5 42.7,24.2 	"/>
	<path class="st4" d="M45,45c0.4,1.9,2.1,3.4,4.1,3.4s3.7-1.4,4.1-3.4h4.3c0.5,0,0.8-0.4,0.8-0.8v-8.1c0-0.3-0.2-0.6-0.4-0.7
		l-2.4-1.4L54.1,28c-0.4-1.6-1.8-2.7-3.4-2.7h-7v-1.1c0-0.5-0.4-0.8-0.8-0.8H17.2c-0.5,0-0.8,0.4-0.8,0.8v20c0,0.5,0.4,0.8,0.8,0.8
		h2.7c0.4,1.9,2.1,3.4,4.1,3.4s3.7-1.4,4.1-3.4L45,45L45,45z M52.5,28.4l1.2,5.2h-5.1V27h2.1C51.6,27,52.3,27.6,52.5,28.4z M18,25.1
		h24.1v1.1v11.2H18V25.1z M18,39h24.1v1.3h-7.6c-0.5,0-0.8,0.4-0.8,0.8s0.4,0.8,0.8,0.8h7.6v1.3h-14C27.7,41.4,26,40,24,40
		s-3.7,1.4-4.1,3.4H18V39z M24,46.7c-1.4,0-2.5-1.1-2.5-2.5c0-1.4,1.1-2.5,2.5-2.5c1.4,0,2.5,1.1,2.5,2.5
		C26.5,45.6,25.4,46.7,24,46.7z M49.1,46.7c-1.3,0-2.4-1-2.5-2.4c0-0.1,0-0.1,0-0.2c0-0.1,0-0.1,0-0.2c0.1-1.3,1.2-2.4,2.5-2.4
		c1.4,0,2.5,1.1,2.5,2.5S50.5,46.7,49.1,46.7z M43.8,27H47v7.5c0,0.5,0.4,0.8,0.8,0.8h6.8l2.1,1.2v0.3h-2.4c-0.5,0-0.8,0.4-0.8,0.8
		v2.6c0,0.5,0.4,0.8,0.8,0.8h2.4v2.3h-3.4c-0.4-1.9-2.1-3.4-4.1-3.4s-3.7,1.4-4.1,3.4h-1.2V27z M56.7,39.4h-1.6v-0.9h1.6V39.4z"/>
	<path class="st4" d="M31,42h0.7c0.5,0,0.8-0.4,0.8-0.8c0-0.5-0.4-0.8-0.8-0.8H31c-0.5,0-0.8,0.4-0.8,0.8C30.2,41.6,30.6,42,31,42z"
		/>
</g>
</svg>
