<?xml version="1.0" encoding="utf-8"?>
<!-- Generator: Adobe Illustrator 19.2.0, SVG Export Plug-In . SVG Version: 6.00 Build 0)  -->
<svg version="1.1" id="Слой_1" xmlns="http://www.w3.org/2000/svg" xmlns:xlink="http://www.w3.org/1999/xlink" x="0px" y="0px"
	 viewBox="0 0 72 72" style="enable-background:new 0 0 72 72;" xml:space="preserve">
<style type="text/css">
	.st0{fill:#FFFFFF;stroke:#5DB3EA;stroke-miterlimit:10;}
	.st1{fill:#FFFFFF;stroke:#F9C551;stroke-miterlimit:10;}
	.st2{fill:#3D3D3D;}
	.st3{fill:#5DB3EA;}
	.st4{fill:#FFFFFF;}
	.st5{fill:#F9C551;stroke:#3D3D3D;stroke-miterlimit:10;}
</style>
<circle class="st0" cx="36.1" cy="36" r="33.5"/>
<circle class="st1" cx="36.1" cy="36" r="31.8"/>
<g>
	<g>
		<path class="st2" d="M25,32.7"/>
		<path class="st2" d="M27.1,29"/>
		<path class="st2" d="M28.4,28.6"/>
		<path class="st2" d="M30.3,29"/>
		<path class="st2" d="M31.6,27.7"/>
		<path class="st2" d="M33.5,25.8"/>
		<path class="st2" d="M21.1,42.3h30.8V22.4H21.1V42.3z M22.4,23.7h28.2V41H22.4V23.7z M22.4,23.7"/>
		<path class="st2" d="M37.8,42.9h-2.6c-0.4,0-0.6,0.3-0.6,0.6c0,0.4,0.3,0.6,0.6,0.6h2.6c0.4,0,0.6-0.3,0.6-0.6
			C38.4,43.2,38.1,42.9,37.8,42.9L37.8,42.9z M37.8,42.9"/>
		<path class="st2" d="M53.8,45.5V23.1c0-1.4-1.2-2.6-2.6-2.6H21.8c-1.4,0-2.6,1.2-2.6,2.6v22.4h-1.9v3.2h38.5v-3.2H53.8z
			 M20.5,23.1c0-0.7,0.6-1.3,1.3-1.3h29.4c0.7,0,1.3,0.6,1.3,1.3v22.4h-32V23.1z M54.4,47.4H18.6v-0.6h35.9V47.4z M54.4,47.4"/>
	</g>
	<rect x="23.8" y="24.7" class="st3" width="25.3" height="15.1"/>
	<g>
		<path class="st4" d="M40.6,29.7c0-0.2-0.1-0.3-0.2-0.5c-0.7-1.7-2.3-2.4-3.6-2.4c-1.7,0-3.6,1.1-3.8,3.5v0.5c0,0,0,0.2,0,0.3
			c0.1,1.1,1,2.3,1.7,3.4c0.7,1.2,1.5,2.4,2.2,3.6c0.5-0.8,0.9-1.6,1.3-2.3c0.1-0.2,0.3-0.4,0.4-0.7c0.1-0.1,0.2-0.3,0.3-0.4
			c0.7-1.3,1.9-2.6,1.9-3.9v-0.5C40.8,30.3,40.6,29.8,40.6,29.7L40.6,29.7z M36.9,32.2c-0.5,0-1.1-0.3-1.3-0.9c0-0.1,0-0.3,0-0.4
			v-0.3c0-0.9,0.8-1.3,1.4-1.3c0.8,0,1.4,0.6,1.4,1.4C38.4,31.5,37.7,32.2,36.9,32.2L36.9,32.2z M36.9,32.2"/>
	</g>
	<circle class="st5" cx="36.8" cy="30.8" r="2.2"/>
</g>
</svg>
