<?xml version="1.0" encoding="utf-8"?>
<!-- Generator: Adobe Illustrator 19.2.0, SVG Export Plug-In . SVG Version: 6.00 Build 0)  -->
<svg version="1.1" id="Слой_1" xmlns="http://www.w3.org/2000/svg" xmlns:xlink="http://www.w3.org/1999/xlink" x="0px" y="0px"
	 viewBox="0 0 72 72" style="enable-background:new 0 0 72 72;" xml:space="preserve">
<style type="text/css">
	.st0{fill:#FFFFFF;stroke:#5DB3EA;stroke-miterlimit:10;}
	.st1{fill:#FFFFFF;stroke:#F9C551;stroke-miterlimit:10;}
	.st2{fill:#3D3D3D;}
	.st3{fill:#F9C551;}
	.st4{font-family:'RotondaC-Bold';}
	.st5{font-size:12px;}
</style>
<circle class="st0" cx="36.1" cy="36" r="33.5"/>
<circle class="st1" cx="36.1" cy="36" r="31.8"/>
<g>
	<g>
		<path class="st2" d="M55.4,38.9c-0.4,0.8-1.1,1.2-1.8,1.2c-0.3,0-0.6-0.1-0.8-0.2c-0.7,2.2-1.7,3.8-3.1,4.7v0.9
			c0,0.6-0.3,1-0.5,1.4c-0.4,0.6-1,1.5-1,4.3c0,0.4-0.3,0.7-0.7,0.7h-6.4c-0.3,0-0.5-0.1-0.6-0.3c-0.1-0.2-0.1-0.5,0-0.7l0.9-1.7
			v-1.8c0-0.4,0.3-0.7,0.7-0.7c0.4,0,0.7,0.3,0.7,0.7v2c0,0.1,0,0.2-0.1,0.3l-0.5,0.8h1.2l0.7-1.4v-3.5c-0.7,0.2-1.5,0.3-2.3,0.3
			c-1.4,0-2.7-0.3-3.8-0.7c-0.7,0-1.3,0-2,0c-0.1,0.4-0.3,0.8-0.5,1.2c-0.5,0.8-1.2,1.9-1.2,4.9c0,0.4-0.3,0.7-0.7,0.7h-6.4
			c-0.3,0-0.5-0.1-0.6-0.3c-0.1-0.2-0.1-0.5,0-0.7l0.9-1.7V46c0-0.4,0.3-0.7,0.7-0.7c0.4,0,0.7,0.3,0.7,0.7v3.3c0,0.1,0,0.2-0.1,0.3
			l-0.5,0.8h1.2l0.7-1.4v-4.5c-0.5-0.1-1-0.1-1.4-0.2c-0.8-0.1-2.3-0.6-3.3-1.8c-1.6-1.9-1.9-2.2-4.3-2.2c0,0,0,0,0,0h-3.3
			c-0.9,0-1.6-0.7-1.6-1.6V36c0-0.9,0.7-1.6,1.6-1.6c2.1,0,5-3.1,6.3-5.1c0,0,0,0,0,0l0.3-0.4c-0.4-0.4-0.6-0.8-0.7-1.3
			c0-0.3,0-0.5,0.1-0.8c-0.3-1.4-0.3-3.4-0.2-4.2c0.1-0.6,0.3-1,0.7-1.2c0.7-0.5,1.5,0,1.8,0.1c0.3,0.2,0.5,0.6,0.3,1
			c-0.2,0.3-0.6,0.5-1,0.3c-0.2-0.1-0.3-0.1-0.4-0.1c0,0-0.1,0.1-0.1,0.3c-0.1,0.4-0.1,1.3,0,2.2c0.5-0.5,1.1-1,1.8-1.6
			c2-1.8,3.4-2.7,4.4-2c0.4,0.2,0.6,0.6,0.7,1.2c0.2,0.8,0.1,1.9,0,3.4c-0.1,1.5-0.2,2.6-0.4,3.3c-0.2,0.9-0.6,1.4-1.2,1.7
			c-0.7,0.4-1.6,0.1-2.3-0.1c-0.4-0.1-0.5-0.6-0.4-0.9c0.1-0.4,0.6-0.5,0.9-0.4c0.6,0.2,0.9,0.3,1.1,0.2c0.2-0.1,0.3-0.4,0.4-0.8
			c0.2-0.6,0.3-1.6,0.3-3c0,0,0,0,0,0c0.1-1.3,0.1-2.4,0-3c0-0.1-0.1-0.2-0.1-0.3c-0.2,0-0.8,0.3-2.7,1.9c0,0,0,0,0,0
			c-1,0.9-2.2,1.9-2.5,2.5c0,0-0.1,0.3-0.1,0.4c0,0.2,0.2,0.6,1.4,1.2c0.3,0.2,0.5,0.6,0.3,1c-0.2,0.3-0.6,0.5-1,0.3
			c-0.1,0-0.2-0.1-0.3-0.2l-0.3,0.4c-0.4,0.6-4,5.7-7.5,5.7c-0.1,0-0.1,0.1-0.1,0.2v2.9c0,0.1,0.1,0.2,0.1,0.2h3.3
			c1.4,0,2.2,0.1,3,0.5c0.6,0.1,1.4,0.2,2.1-0.1c0.4-0.1,0.8,0.1,0.9,0.5c0.1,0.4-0.1,0.8-0.5,0.9c-0.3,0.1-0.5,0.1-0.8,0.2
			c0.2,0.2,0.4,0.5,0.7,0.8c0.7,0.9,1.8,1.2,2.4,1.3c0.6,0.1,1.2,0.2,2,0.3c0.4,0,0.6,0.3,0.6,0.7v5.3c0,0.1,0,0.2-0.1,0.3l-0.5,0.8
			h1.7c0.1-2.9,0.8-4.1,1.4-5c0.3-0.4,0.4-0.6,0.4-0.9v-0.3c0-0.2,0.1-0.4,0.2-0.5c0.1-0.1,0.3-0.2,0.5-0.2c0.9,0,1.9,0,2.8,0
			c0.1,0,0.2,0,0.3,0.1c0.9,0.4,2.1,0.7,3.4,0.7c1,0,2-0.2,2.8-0.5c0.2-0.1,0.5,0,0.6,0.1c0.2,0.1,0.3,0.3,0.3,0.6v4.7
			c0,0.1,0,0.2-0.1,0.3l-0.5,0.8h1.7c0.1-2.6,0.8-3.7,1.2-4.4c0.2-0.3,0.3-0.4,0.3-0.6v-1.3c0-0.3,0.1-0.5,0.4-0.6
			c2.7-1.5,3.6-6.2,3.6-9.8c0-5-3.8-9.1-8.5-9.1h-9.5c-0.4,0-0.7-0.3-0.7-0.7c0-0.4,0.3-0.7,0.7-0.7h9.5c5.5,0,10,4.7,10,10.6
			c0,1-0.1,2.7-0.5,4.6c0.1,0.2,0.3,0.3,0.4,0.3c0.2,0,0.4-0.2,0.5-0.5c0.2-0.3,0.6-0.5,1-0.3C55.5,38.2,55.6,38.6,55.4,38.9
			L55.4,38.9z M26.4,31.5c-0.4,0-0.7,0.3-0.7,0.7v0.2c0,0.4,0.3,0.7,0.7,0.7c0.4,0,0.7-0.3,0.7-0.7v-0.2
			C27.1,31.8,26.8,31.5,26.4,31.5L26.4,31.5z M48.4,34c0,0.4,0.3,0.7,0.7,0.7c0.4,0,0.7-0.3,0.7-0.7c0-4.1-3.6-7.4-8-7.4
			c-0.4,0-0.7,0.3-0.7,0.7c0,0.4,0.3,0.7,0.7,0.7C45.5,28.1,48.4,30.8,48.4,34L48.4,34z M48.4,34"/>
	</g>
</g>
<circle class="st3" cx="48.8" cy="28.5" r="8.7"/>
<text transform="matrix(1 0 0 1 44.5003 32.6665)" class="st2 st4 st5">%</text>
</svg>
