<?xml version="1.0" encoding="utf-8"?>
<!-- Generator: Adobe Illustrator 19.2.0, SVG Export Plug-In . SVG Version: 6.00 Build 0)  -->
<svg version="1.1" id="Слой_1" xmlns="http://www.w3.org/2000/svg" xmlns:xlink="http://www.w3.org/1999/xlink" x="0px" y="0px"
	 viewBox="0 0 28 28" style="enable-background:new 0 0 28 28;" xml:space="preserve">
<style type="text/css">
	.st0{fill:#26A8EC;}
</style>
<g>
	<path class="st0" d="M17.7,14.5c-0.2-0.2-0.2-0.6,0-0.8l8.8-8.8c0.2-0.2,0.4-0.6,0.4-0.8c0-0.2-0.1-0.6-0.4-0.8l-1.6-1.6
		c-0.2-0.2-0.6-0.4-0.8-0.4c-0.4,0-0.6,0.1-0.8,0.4l-8.8,8.8c-0.2,0.2-0.6,0.2-0.8,0L4.7,1.5C4.5,1.3,4.1,1.2,3.9,1.2
		c-0.2,0-0.6,0.1-0.8,0.4L1.4,3.2C1.2,3.4,1.1,3.8,1.1,4c0,0.2,0.1,0.6,0.4,0.8l8.8,8.8c0.2,0.2,0.2,0.6,0,0.8l-8.8,8.8
		c-0.2,0.2-0.4,0.6-0.4,0.8c0,0.2,0.1,0.6,0.4,0.8l1.6,1.6c0.2,0.2,0.6,0.4,0.8,0.4c0.2,0,0.6-0.1,0.8-0.4l8.8-8.8
		c0.2-0.2,0.6-0.2,0.8,0l8.8,8.8c0.2,0.2,0.6,0.4,0.8,0.4c0.2,0,0.6-0.1,0.8-0.4l1.6-1.6c0.2-0.2,0.4-0.6,0.4-0.8
		c0-0.2-0.1-0.6-0.4-0.8L17.7,14.5z M17.7,14.5"/>
</g>
</svg>
