<?xml version="1.0" encoding="utf-8"?>
<!-- Generator: Adobe Illustrator 19.2.0, SVG Export Plug-In . SVG Version: 6.00 Build 0)  -->
<svg version="1.1" id="Слой_1" xmlns="http://www.w3.org/2000/svg" xmlns:xlink="http://www.w3.org/1999/xlink" x="0px" y="0px"
	 viewBox="0 0 28 28" style="enable-background:new 0 0 28 28;" xml:space="preserve">
<style type="text/css">
	.st0{fill:#26A8EC;}
</style>
<g>
	<path class="st0" d="M25.8,3.4H2.2C1,3.4,0,4.4,0,5.6c0,1.2,1,2.2,2.2,2.2h23.5c1.2,0,2.2-1,2.2-2.2C28,4.4,27,3.4,25.8,3.4
		L25.8,3.4z M25.8,3.4"/>
	<path class="st0" d="M25.8,11.5H2.2c-1.2,0-2.2,1-2.2,2.2C0,15,1,16,2.2,16h23.5c1.2,0,2.2-1,2.2-2.2C28,12.5,27,11.5,25.8,11.5
		L25.8,11.5z M25.8,11.5"/>
	<path class="st0" d="M25.8,19.6H2.2c-1.2,0-2.2,1-2.2,2.2c0,1.2,1,2.2,2.2,2.2h23.5c1.2,0,2.2-1,2.2-2.2C28,20.6,27,19.6,25.8,19.6
		L25.8,19.6z M25.8,19.6"/>
</g>
</svg>
