<?xml version="1.0" encoding="utf-8"?>
<!-- Generator: Adobe Illustrator 19.2.0, SVG Export Plug-In . SVG Version: 6.00 Build 0)  -->
<svg version="1.1" id="Слой_1" xmlns="http://www.w3.org/2000/svg" xmlns:xlink="http://www.w3.org/1999/xlink" x="0px" y="0px"
	 viewBox="0 0 21 21" style="enable-background:new 0 0 21 21;" xml:space="preserve">
<style type="text/css">
	.st0{fill:#FFFFFF;}
</style>
<g>
	<g>
		<path class="st0" d="M20.5,4.7c-0.1-0.2-0.3-0.3-0.5-0.3H5.3c0,0-0.1,0-0.1,0L4.6,2.7C4.5,2.5,4.4,2.4,4.2,2.3l-3-1.2
			C0.8,1,0.4,1.1,0.3,1.5c-0.1,0.3,0,0.7,0.4,0.8l2.8,1.1l3.4,9.8c-0.1,0.1-0.3,0.2-0.3,0.3l-1,2.7c-0.1,0.2,0,0.4,0.1,0.5
			C5.7,16.9,5.8,17,6,17h0.5C6.2,17.3,6,17.8,6,18.3c0,1.1,0.9,2,2,2c1.1,0,2-0.9,2-2c0-0.5-0.2-1-0.5-1.3h4.3
			c-0.3,0.3-0.5,0.8-0.5,1.3c0,1.1,0.9,2,2,2c1.1,0,2-0.9,2-2c0-0.5-0.2-1-0.5-1.3h0.6c0.3,0,0.5-0.2,0.5-0.5c0-0.3-0.2-0.5-0.5-0.5
			H6.8l0.6-1.7c0.1,0,0.2,0.1,0.3,0.1h9.6c0.3,0,0.5-0.2,0.6-0.5l2.7-8.5C20.6,5.1,20.6,4.9,20.5,4.7L20.5,4.7z M8,19.1
			c-0.5,0-0.9-0.4-0.9-0.9c0-0.5,0.4-0.9,0.9-0.9c0.5,0,0.9,0.4,0.9,0.9C8.8,18.7,8.5,19.1,8,19.1L8,19.1z M15.2,19.1
			c-0.5,0-0.9-0.4-0.9-0.9c0-0.5,0.4-0.9,0.9-0.9c0.5,0,0.9,0.4,0.9,0.9C16,18.7,15.6,19.1,15.2,19.1L15.2,19.1z M18.6,7.2h-3.3V5.7
			h3.8L18.6,7.2z M17.6,10.2h-2.4V8.5h2.9L17.6,10.2z M10.9,10.2V8.5h3v1.7H10.9z M13.9,11.5v1.4h-3v-1.4H13.9z M6.6,8.5h3v1.7H7.2
			L6.6,8.5z M10.9,7.2V5.7h3v1.5H10.9z M9.6,5.7v1.5H6.1L5.6,5.7H9.6z M7.6,11.5h2v1.4H8.1L7.6,11.5z M15.3,12.9v-1.4h2l-0.5,1.4
			H15.3z M15.3,12.9"/>
	</g>
</g>
</svg>
