<?xml version="1.0" encoding="utf-8"?>
<!-- Generator: Adobe Illustrator 19.2.0, SVG Export Plug-In . SVG Version: 6.00 Build 0)  -->
<svg version="1.1" id="Слой_1" xmlns="http://www.w3.org/2000/svg" xmlns:xlink="http://www.w3.org/1999/xlink" x="0px" y="0px"
	 viewBox="0 0 30 30" style="enable-background:new 0 0 30 30;" xml:space="preserve">
<style type="text/css">
	.st0{fill:#8E8E8E;}
</style>
<g>
	<g>
		<path class="st0" d="M28.8,6.2c-0.2-0.2-0.5-0.4-0.8-0.4h-21c0,0-0.1,0-0.1,0L6.2,3.3C6.1,3.1,5.9,2.9,5.6,2.8L1.3,1
			c-0.5-0.2-1,0-1.2,0.5c-0.2,0.5,0,1,0.5,1.2l3.9,1.6l4.8,13.9c-0.2,0.1-0.4,0.2-0.5,0.5l-1.4,3.9c-0.1,0.2-0.1,0.5,0.1,0.7
			c0.1,0.2,0.4,0.3,0.6,0.3h0.7c-0.4,0.5-0.7,1.1-0.7,1.9c0,1.5,1.3,2.8,2.8,2.8c1.5,0,2.8-1.3,2.8-2.8c0-0.7-0.3-1.4-0.7-1.9h6.1
			c-0.4,0.5-0.7,1.1-0.7,1.9c0,1.5,1.3,2.8,2.8,2.8c1.5,0,2.8-1.3,2.8-2.8c0-0.7-0.3-1.4-0.7-1.9h0.9c0.4,0,0.8-0.3,0.8-0.8
			c0-0.4-0.3-0.8-0.8-0.8H9.3l0.9-2.4c0.1,0,0.2,0.1,0.4,0.1h13.7c0.4,0,0.8-0.3,0.9-0.6L29,7C29.1,6.7,29,6.4,28.8,6.2L28.8,6.2z
			 M11,26.7c-0.7,0-1.2-0.6-1.2-1.2c0-0.7,0.6-1.2,1.2-1.2c0.7,0,1.2,0.6,1.2,1.2C12.3,26.2,11.7,26.7,11,26.7L11,26.7z M21.3,26.7
			c-0.7,0-1.2-0.6-1.2-1.2c0-0.7,0.6-1.2,1.2-1.2c0.7,0,1.2,0.6,1.2,1.2C22.5,26.2,21.9,26.7,21.3,26.7L21.3,26.7z M26.1,9.7h-4.8
			V7.7h5.4L26.1,9.7z M24.8,14h-3.4v-2.4h4.2L24.8,14z M15.2,14v-2.4h4.3V14H15.2z M19.5,15.9v2h-4.3v-2H19.5z M9,11.6h4.3V14H9.9
			L9,11.6z M15.2,9.7V7.7h4.3v2.1H15.2z M13.4,7.7v2.1h-5L7.7,7.7H13.4z M10.5,15.9h2.9v2h-2.2L10.5,15.9z M21.4,17.9v-2h2.8l-0.6,2
			H21.4z M21.4,17.9"/>
	</g>
</g>
</svg>
