<?xml version="1.0" encoding="utf-8"?>
<!-- Generator: Adobe Illustrator 19.2.0, SVG Export Plug-In . SVG Version: 6.00 Build 0)  -->
<svg version="1.1" id="Слой_1" xmlns="http://www.w3.org/2000/svg" xmlns:xlink="http://www.w3.org/1999/xlink" x="0px" y="0px"
	 viewBox="0 0 26 26" style="enable-background:new 0 0 26 26;" xml:space="preserve">
<style type="text/css">
	.st0{fill:#026136;}
</style>
<g>
	<g>
		<path class="st0" d="M19.4,17c-0.8-0.8-1.8-0.8-2.6,0c-0.6,0.6-1.2,1.2-1.8,1.8c-0.2,0.2-0.3,0.2-0.5,0.1
			c-0.4-0.2-0.8-0.4-1.2-0.6c-1.7-1.1-3.2-2.5-4.5-4.1c-0.6-0.8-1.2-1.6-1.6-2.6c-0.1-0.2-0.1-0.3,0.1-0.5c0.6-0.6,1.2-1.2,1.8-1.8
			c0.8-0.8,0.8-1.8,0-2.6C8.6,6.3,8.2,5.8,7.7,5.3c-0.5-0.5-1-1-1.5-1.5c-0.8-0.8-1.8-0.8-2.6,0C3.1,4.5,2.5,5.1,1.9,5.7
			C1.3,6.2,1,6.9,0.9,7.6c-0.1,1.3,0.2,2.4,0.6,3.6c0.9,2.4,2.2,4.5,3.9,6.5c2.2,2.6,4.9,4.7,8,6.2c1.4,0.7,2.8,1.2,4.4,1.3
			c1.1,0.1,2-0.2,2.8-1.1c0.5-0.6,1.1-1.1,1.6-1.7c0.8-0.8,0.8-1.8,0-2.6C21.3,18.9,20.4,18,19.4,17L19.4,17z M19.4,17"/>
	</g>
	<path class="st0" d="M18.4,13l1.9-0.3C20,11,19.2,9.4,18,8.2c-1.3-1.3-2.9-2.1-4.8-2.4l-0.3,1.9c1.4,0.2,2.7,0.8,3.7,1.8
		C17.6,10.5,18.2,11.7,18.4,13L18.4,13z M18.4,13"/>
	<path class="st0" d="M21.3,4.9c-2.2-2.2-4.9-3.5-7.9-3.9l-0.3,1.9c2.6,0.4,5,1.5,6.8,3.4c1.8,1.8,2.9,4,3.3,6.4l1.9-0.3
		C24.7,9.5,23.4,6.9,21.3,4.9L21.3,4.9z M21.3,4.9"/>
</g>
</svg>
