<?xml version="1.0" encoding="utf-8"?>
<!-- Generator: Adobe Illustrator 19.2.0, SVG Export Plug-In . SVG Version: 6.00 Build 0)  -->
<svg version="1.1" id="Слой_1" xmlns="http://www.w3.org/2000/svg" xmlns:xlink="http://www.w3.org/1999/xlink" x="0px" y="0px"
	 viewBox="0 0 18 18" style="enable-background:new 0 0 18 18;" xml:space="preserve">
<style type="text/css">
	.st0{fill:#8E8E8E;}
</style>
<g>
	<path class="st0" d="M15,4.6c-0.1-0.2-0.2-0.5-0.3-0.7c-1.1-2.7-3.6-3.7-5.6-3.7C6.4,0.2,3.4,2,3,5.7v0.8c0,0,0,0.3,0,0.5
		c0.2,1.8,1.6,3.7,2.7,5.4C6.8,14.3,8,16.1,9.2,18c0.7-1.2,1.4-2.5,2.1-3.6c0.2-0.3,0.4-0.7,0.6-1c0.1-0.2,0.4-0.4,0.5-0.6
		c1.1-2.1,2.9-4.1,2.9-6.2V5.7C15.3,5.4,15,4.7,15,4.6L15,4.6z M9.1,8.4C8.3,8.4,7.5,8,7,6.9C7,6.8,7,6.4,7,6.4V5.9
		c0-1.4,1.2-2,2.2-2c1.3,0,2.2,1,2.2,2.3C11.4,7.4,10.4,8.4,9.1,8.4L9.1,8.4z M9.1,8.4"/>
</g>
</svg>
