<?xml version="1.0" encoding="utf-8"?>
<!-- Generator: Adobe Illustrator 19.2.0, SVG Export Plug-In . SVG Version: 6.00 Build 0)  -->
<svg version="1.1" id="Слой_1" xmlns="http://www.w3.org/2000/svg" xmlns:xlink="http://www.w3.org/1999/xlink" x="0px" y="0px"
	 viewBox="0 0 40 40" style="enable-background:new 0 0 40 40;" xml:space="preserve">
<style type="text/css">
	.st0{fill:#26A8EC;}
</style>
<g>
	<path class="st0" d="M14.8,13.9c0-3.1,2.5-5.6,5.6-5.6c1.3,0,2.6,0.5,3.6,1.3c0.2,0.2,0.3,0.6,0.1,0.8c-0.2,0.2-0.6,0.3-0.8,0.1
		c-0.8-0.7-1.8-1.1-2.9-1.1c-2.5,0-4.5,2-4.5,4.5c0,2.5,2,4.5,4.5,4.5c2.5,0,4.5-2,4.5-4.5c0-0.3,0.3-0.6,0.6-0.6
		c0.3,0,0.6,0.3,0.6,0.6c0,3.1-2.5,5.6-5.6,5.6C17.4,19.5,14.8,17,14.8,13.9L14.8,13.9z M20.5,11.8c1.1,0,2.1,0.9,2.1,2.1
		c0,1.1-0.9,2.1-2.1,2.1c-1.1,0-2.1-0.9-2.1-2.1C18.4,12.7,19.3,11.8,20.5,11.8L20.5,11.8z M20.5,13c-0.5,0-0.9,0.4-0.9,0.9
		c0,0.5,0.4,0.9,0.9,0.9c0.5,0,0.9-0.4,0.9-0.9C21.4,13.4,21,13,20.5,13L20.5,13z M38.6,21v7.6c0,0.7-0.6,1.7-5.6,2.4
		c-3.3,0.5-7.8,0.8-12.5,0.8c-4.7,0-9.1-0.3-12.5-0.8c-5-0.8-5.6-1.7-5.6-2.4V21c0-0.9,1.1-1.5,3.6-2.1c1.8-0.4,4.3-0.7,7.1-0.9
		c-0.7-1.3-1.1-2.7-1.1-4.2c0-4.7,3.8-8.5,8.5-8.5c4.7,0,8.5,3.8,8.5,8.5c0,1.5-0.4,2.9-1.1,4.2c2.8,0.2,5.3,0.5,7.1,0.9
		C37.5,19.5,38.6,20.1,38.6,21L38.6,21z M34.4,20c-1.9-0.4-4.4-0.7-7.2-0.8c-1,1.3-2.4,2.3-4,2.8V23c3.1-0.1,6-0.3,8.5-0.6
		c0.1,0,0.2,0,0.3,0c0.2,0,0.4,0,0.6-0.1c0.2,0,0.4-0.1,0.5-0.1c0.1,0,0.2,0,0.3-0.1c0,0,0.1,0,0.1,0c0.1,0,0.1,0,0.2,0
		c0,0,0.1,0,0.1,0c0.1,0,0.1,0,0.2,0c0,0,0.1,0,0.1,0c0.1,0,0.1,0,0.2,0c0,0,0.1,0,0.1,0c0.1,0,0.1,0,0.2,0c0,0,0.1,0,0.1,0
		c0.1,0,0.1,0,0.2,0c0,0,0.1,0,0.1,0c0.1,0,0.1,0,0.2,0c0,0,0.1,0,0.1,0c0.1,0,0.1,0,0.2,0c0,0,0,0,0,0c0.1,0,0.1,0,0.2-0.1
		c0,0,0,0,0,0c0.1,0,0.1,0,0.2,0c0,0,0,0,0.1,0c0,0,0.1,0,0.1,0c0,0,0,0,0.1,0c0,0,0.1,0,0.1,0c0,0,0,0,0.1,0c0,0,0.1,0,0.1,0
		c0,0,0,0,0.1,0c0,0,0.1,0,0.1,0c0,0,0,0,0.1,0c0,0,0.1,0,0.1,0c0,0,0,0,0,0c0,0,0.1,0,0.1,0c0,0,0,0,0,0c0,0,0.1,0,0.1,0
		c0,0,0,0,0,0c0,0,0.1,0,0.1,0c0,0,0,0,0,0c0,0,0,0,0.1,0c0,0,0,0,0,0c0,0,0,0,0.1,0c0,0,0,0,0,0c0,0,0,0,0,0c0,0,0,0,0,0
		c0,0,0,0,0,0c0,0,0,0,0,0c0,0,0,0,0,0c0,0,0,0,0,0c0,0,0,0,0,0c0,0,0,0,0,0c0,0,0,0,0,0c0,0,0,0,0,0c0,0,0,0,0,0c0,0,0,0,0,0
		c0,0,0,0,0,0c0,0,0,0,0,0c0,0,0,0,0,0c0,0,0,0,0,0c0,0,0,0,0,0C37.2,20.9,36.6,20.5,34.4,20L34.4,20z M16.6,25.9v2.9h7.8v-2.9h-1.2
		c-0.3,1.2-1.4,2.1-2.6,2.1c-1.3,0-2.4-0.9-2.6-2.1H16.6z M18.9,22.2v1.4c0,0,0,0,0,0c0,0,0,0,0,0v1.6c0,0.9,0.7,1.5,1.5,1.5
		c0.9,0,1.5-0.7,1.5-1.5v-1.6c0,0,0,0,0,0c0,0,0,0,0,0v-1.4c-0.5,0.1-1,0.1-1.5,0.1C20,22.4,19.4,22.3,18.9,22.2L18.9,22.2z
		 M13.1,13.9c0,1.5,0.5,3,1.3,4.2c1,1.4,2.4,2.4,4,2.9c0,0,0.1,0,0.1,0c0.6,0.2,1.3,0.3,1.9,0.3c0.6,0,1.3-0.1,1.9-0.2
		c0,0,0.1,0,0.2,0c1.6-0.5,3.1-1.5,4-3c0.8-1.2,1.3-2.6,1.3-4.1c0-4.1-3.3-7.4-7.4-7.4C16.4,6.5,13.1,9.8,13.1,13.9L13.1,13.9z
		 M3.6,21C3.6,21,3.6,21,3.6,21C3.6,21,3.6,21,3.6,21C3.6,21,3.6,21.1,3.6,21C3.6,21.1,3.6,21.1,3.6,21C3.6,21.1,3.6,21.1,3.6,21
		C3.6,21.1,3.7,21.1,3.6,21c0.1,0.1,0.1,0.1,0.1,0.1c0,0,0,0,0,0c0,0,0,0,0,0c0,0,0,0,0,0c0,0,0,0,0,0c0,0,0,0,0,0c0,0,0,0,0,0
		c0,0,0,0,0,0c0,0,0,0,0,0c0,0,0,0,0,0c0,0,0,0,0,0c0,0,0,0,0,0c0,0,0,0,0.1,0c0,0,0,0,0,0c0,0,0,0,0.1,0c0,0,0,0,0,0
		c0,0,0.1,0,0.1,0c0,0,0,0,0,0c0,0,0.1,0,0.1,0c0,0,0,0,0,0c0,0,0.1,0,0.1,0c0,0,0,0,0,0c0,0,0.1,0,0.1,0c0,0,0,0,0.1,0
		c0,0,0.1,0,0.1,0c0,0,0,0,0.1,0c0,0,0.1,0,0.1,0c0,0,0,0,0.1,0c0,0,0.1,0,0.1,0c0,0,0,0,0.1,0c0,0,0.1,0,0.1,0c0,0,0,0,0.1,0
		c0.1,0,0.1,0,0.2,0c0,0,0,0,0,0c0.1,0,0.1,0,0.2,0.1c0,0,0,0,0,0c0.1,0,0.1,0,0.2,0c0,0,0.1,0,0.1,0c0,0,0.1,0,0.2,0
		c0,0,0.1,0,0.1,0c0,0,0.1,0,0.2,0c0,0,0.1,0,0.1,0c0.1,0,0.1,0,0.2,0c0,0,0.1,0,0.1,0c0.1,0,0.1,0,0.2,0c0,0,0.1,0,0.1,0
		c0.1,0,0.1,0,0.2,0c0,0,0.1,0,0.1,0c0.1,0,0.1,0,0.2,0c0,0,0.1,0,0.1,0c0.1,0,0.2,0,0.3,0.1c2.6,0.4,6.1,0.7,9.8,0.8v-1.1
		c-1.5-0.5-2.9-1.5-4-2.8C11,19.4,8.5,19.6,6.6,20C4.4,20.5,3.7,20.9,3.6,21L3.6,21z M37.4,22.4C37.4,22.4,37.4,22.4,37.4,22.4
		c0,0-0.1,0-0.1,0.1c0,0,0,0,0,0c0,0-0.1,0-0.1,0.1c0,0,0,0,0,0c0,0-0.1,0-0.1,0.1c0,0,0,0,0,0c0,0-0.1,0-0.2,0.1c0,0,0,0,0,0
		c-0.1,0-0.1,0-0.2,0.1c0,0,0,0,0,0c-0.1,0-0.1,0-0.2,0.1c0,0,0,0,0,0c-0.1,0-0.1,0-0.2,0.1c0,0,0,0,0,0c-0.1,0-0.1,0-0.2,0.1
		c0,0,0,0,0,0c-0.1,0-0.1,0-0.2,0.1c0,0,0,0,0,0c-0.1,0-0.1,0-0.2,0.1c0,0,0,0,0,0c-0.1,0-0.2,0-0.2,0.1c0,0,0,0,0,0
		c-0.1,0-0.2,0-0.2,0.1c0,0,0,0,0,0c-0.1,0-0.2,0-0.2,0.1c0,0,0,0,0,0c-0.1,0-0.2,0-0.3,0.1c0,0,0,0-0.1,0c-0.1,0-0.2,0-0.3,0.1
		c0,0,0,0-0.1,0c-0.1,0-0.2,0-0.3,0.1c-2.7,0.5-6.4,0.8-10.5,0.9v0.5h1.8c0.3,0,0.6,0.3,0.6,0.6v4c0,0.3-0.3,0.6-0.6,0.6H16
		c-0.3,0-0.6-0.3-0.6-0.6v-4c0-0.3,0.3-0.6,0.6-0.6h1.8v-0.5c-4-0.1-7.7-0.4-10.5-0.9c-0.1,0-0.2,0-0.3-0.1c0,0,0,0-0.1,0
		c-0.1,0-0.2,0-0.3-0.1c0,0,0,0-0.1,0c-0.1,0-0.2,0-0.3-0.1c0,0,0,0,0,0c-0.1,0-0.2,0-0.2-0.1c0,0,0,0,0,0c-0.1,0-0.2,0-0.2-0.1
		c0,0,0,0-0.1,0c-0.1,0-0.2,0-0.2-0.1c0,0,0,0,0,0c-0.1,0-0.1,0-0.2-0.1c0,0,0,0,0,0c-0.1,0-0.1,0-0.2-0.1c0,0,0,0,0,0
		c-0.1,0-0.1,0-0.2-0.1c0,0,0,0,0,0c-0.1,0-0.1,0-0.2-0.1c0,0,0,0,0,0c-0.1,0-0.1,0-0.2-0.1c0,0,0,0,0,0c-0.1,0-0.1,0-0.2-0.1
		c0,0,0,0,0,0c-0.1,0-0.1,0-0.2-0.1c0,0,0,0,0,0c0,0-0.1,0-0.1-0.1c0,0,0,0,0,0c0,0-0.1,0-0.1-0.1c0,0,0,0,0,0c0,0-0.1,0-0.1-0.1
		c0,0,0,0,0,0v6.2c0.1,0.1,0.8,0.8,5.1,1.4c3.2,0.4,7.4,0.7,11.8,0.7c4.4,0,8.6-0.2,11.8-0.7c4.3-0.6,5-1.3,5.1-1.4L37.4,22.4
		L37.4,22.4z M14.4,24.7c-0.3,0-0.6,0.3-0.6,0.6v4c0,0.3,0.3,0.6,0.6,0.6c0.3,0,0.6-0.3,0.6-0.6v-4C15,25,14.7,24.7,14.4,24.7
		L14.4,24.7z M26.6,24.7c-0.3,0-0.6,0.3-0.6,0.6v4c0,0.3,0.3,0.6,0.6,0.6c0.3,0,0.6-0.3,0.6-0.6v-4C27.1,25,26.9,24.7,26.6,24.7
		L26.6,24.7z M26.6,24.7"/>
</g>
</svg>
