<?xml version="1.0" encoding="utf-8"?>
<!-- Generator: Adobe Illustrator 19.2.0, SVG Export Plug-In . SVG Version: 6.00 Build 0)  -->
<svg version="1.1" id="Слой_1" xmlns="http://www.w3.org/2000/svg" xmlns:xlink="http://www.w3.org/1999/xlink" x="0px" y="0px"
	 viewBox="0 0 40 40" style="enable-background:new 0 0 40 40;" xml:space="preserve">
<style type="text/css">
	.st0{fill:#26A8EC;}
</style>
<g>
	<path class="st0" d="M30.1,28.9c0,0.3-0.3,0.6-0.6,0.6s-0.6-0.3-0.6-0.6c0-0.3,0.3-0.6,0.6-0.6S30.1,28.5,30.1,28.9L30.1,28.9z
		 M30.1,28.9"/>
	<path class="st0" d="M33.2,30.1c0,0.3-0.3,0.6-0.6,0.6S32,30.5,32,30.1c0-0.3,0.3-0.6,0.6-0.6S33.2,29.8,33.2,30.1L33.2,30.1z
		 M33.2,30.1"/>
	<path class="st0" d="M28.8,32c0,0.3-0.3,0.6-0.6,0.6c-0.3,0-0.6-0.3-0.6-0.6c0-0.3,0.3-0.6,0.6-0.6C28.5,31.4,28.8,31.7,28.8,32
		L28.8,32z M28.8,32"/>
	<path class="st0" d="M26.9,28.2c0,0.3-0.3,0.6-0.6,0.6s-0.6-0.3-0.6-0.6c0-0.3,0.3-0.6,0.6-0.6S26.9,27.9,26.9,28.2L26.9,28.2z
		 M26.9,28.2"/>
	<path class="st0" d="M26.3,34.5c0,0.3-0.3,0.6-0.6,0.6c-0.3,0-0.6-0.3-0.6-0.6c0-0.3,0.3-0.6,0.6-0.6C26,33.9,26.3,34.2,26.3,34.5
		L26.3,34.5z M26.3,34.5"/>
	<path class="st0" d="M14.4,27.6c0,0.3-0.3,0.6-0.6,0.6c-0.3,0-0.6-0.3-0.6-0.6c0-0.3,0.3-0.6,0.6-0.6C14.1,27,14.4,27.3,14.4,27.6
		L14.4,27.6z M14.4,27.6"/>
	<path class="st0" d="M12.5,32.6c0,0.3-0.3,0.6-0.6,0.6c-0.3,0-0.6-0.3-0.6-0.6c0-0.3,0.3-0.6,0.6-0.6C12.2,32,12.5,32.3,12.5,32.6
		L12.5,32.6z M12.5,32.6"/>
	<path class="st0" d="M11.9,29.5c0,0.3-0.3,0.6-0.6,0.6c-0.3,0-0.6-0.3-0.6-0.6c0-0.3,0.3-0.6,0.6-0.6
		C11.6,28.9,11.9,29.2,11.9,29.5L11.9,29.5z M11.9,29.5"/>
	<path class="st0" d="M8.1,29.5c0,0.3-0.3,0.6-0.6,0.6c-0.3,0-0.6-0.3-0.6-0.6c0-0.3,0.3-0.6,0.6-0.6C7.8,28.9,8.1,29.2,8.1,29.5
		L8.1,29.5z M8.1,29.5"/>
	<path class="st0" d="M6.2,27c0,0.3-0.3,0.6-0.6,0.6C5.2,27.6,5,27.3,5,27c0-0.3,0.3-0.6,0.6-0.6C5.9,26.4,6.2,26.6,6.2,27L6.2,27z
		 M6.2,27"/>
	<path class="st0" d="M17.7,29.9c-0.3,0.8-0.2,1.6,0.3,2.3c0.5,0.7,1.2,1.1,2.1,1.1s1.6-0.4,2.1-1.1c0.5-0.7,0.6-1.6,0.3-2.3
		l-1.7-4.3V6.3c0-0.3-0.3-0.6-0.6-0.6s-0.6,0.3-0.6,0.6v19.3L17.7,29.9z M21.1,31.5c-0.2,0.3-0.6,0.6-1,0.6s-0.8-0.2-1-0.6
		c-0.2-0.3-0.3-0.8-0.1-1.2l1.2-2.9l1.2,2.9C21.4,30.7,21.3,31.2,21.1,31.5L21.1,31.5z M21.1,31.5"/>
	<path class="st0" d="M38.9,20.7L38.9,20.7c0-0.2,0-0.4,0-0.6C38.9,9.7,30.4,1.3,20,1.3C9.6,1.3,1.2,9.7,1.2,20.1c0,0.2,0,0.4,0,0.6
		h0l0,0.3c0,0.1,0,0.2,0,0.3l0,0.1c0,0,0,0,0,0c0,0.3,0,0.6,0.1,0.9c0,0,0,0,0,0.1c0,0.3,0.1,0.6,0.1,0.9c0,0,0,0,0,0
		c0.1,0.5,0.2,1,0.3,1.4l0,0l0.1,0.5c0,0,0,0.1,0,0.1c0.1,0.5,0.3,0.9,0.5,1.4c0,0,0,0,0,0c0.2,0.4,0.3,0.8,0.5,1.3
		C2.9,28,3,28,3,28.1c0.2,0.4,0.4,0.8,0.6,1.1c0.1,0.1,0.1,0.2,0.2,0.3c0.2,0.4,0.4,0.7,0.7,1.1c0,0.1,0.1,0.1,0.1,0.2
		c0.2,0.3,0.5,0.6,0.7,0.9c0.1,0.1,0.1,0.1,0.2,0.2c0.3,0.3,0.6,0.7,0.9,1c0.1,0.1,0.1,0.1,0.2,0.2c0.3,0.3,0.7,0.7,1,1c0,0,0,0,0,0
		c2.3,2,5,3.5,8.1,4.3c0,0,0,0,0.1,0c0.3,0.1,0.5,0.1,0.8,0.2c0.1,0,0.1,0,0.2,0c0.1,0,0.2,0,0.3,0.1l0.1,0c0.1,0,0.2,0,0.3,0.1
		c0.1,0,0.2,0,0.3,0c0.2,0,0.4,0.1,0.6,0.1c0.1,0,0.1,0,0.2,0c0.1,0,0.1,0,0.2,0c0,0,0,0,0,0c0.1,0,0.3,0,0.5,0c0.3,0,0.6,0,0.9,0
		s0.6,0,0.9,0c0.2,0,0.3,0,0.5,0c0,0,0,0,0.1,0c0.1,0,0.2,0,0.3,0c0,0,0.1,0,0.1,0c0.2,0,0.4,0,0.6-0.1c0.1,0,0.2,0,0.3,0
		c0.1,0,0.2,0,0.3,0c0.1,0,0.3,0,0.4-0.1l0,0c0.1,0,0.1,0,0.2,0c0.3-0.1,0.5-0.1,0.8-0.2c0,0,0,0,0,0c0.3-0.1,0.5-0.1,0.7-0.2
		c0.2-0.1,0.4-0.1,0.6-0.2c4.8-1.5,8.8-5,11.1-9.5c0.1-0.2,0.2-0.4,0.3-0.6c0.1-0.2,0.2-0.4,0.2-0.5c0.2-0.4,0.3-0.8,0.4-1.2
		c0-0.1,0.1-0.2,0.1-0.2c0.2-0.5,0.3-0.9,0.4-1.4c0,0,0,0,0,0l0.1-0.3l0,0c0.1-0.3,0.1-0.6,0.2-0.9c0,0,0,0,0,0
		c0-0.3,0.1-0.6,0.1-0.9c0,0,0,0,0-0.1c0-0.3,0.1-0.6,0.1-0.9c0,0,0,0,0,0l0-0.1c0-0.1,0-0.2,0-0.3L38.9,20.7z M17.5,23.7l-0.4,0.9
		c-0.6,0.1-1.2-0.1-1.6-0.5l-0.3-0.3c-1.2-1.2-3.3-1.2-4.5,0l-0.3,0.3c-0.7,0.8-2,0.8-2.7,0l-0.3-0.3c-1.2-1.2-3.3-1.2-4.5,0l0,0
		c-0.1-0.6-0.2-1.2-0.3-1.8H16c0.9,0,1.6,0.7,1.6,1.6V23.7z M18.7,37.6c-0.1,0-0.2,0-0.2,0c-0.4,0-0.8-0.1-1.2-0.2
		c-0.1,0-0.1,0-0.2,0c-0.4-0.1-0.8-0.2-1.2-0.3c0,0-0.1,0-0.1,0c-0.4-0.1-0.8-0.2-1.2-0.4l0,0c-0.4-0.1-0.8-0.3-1.2-0.4
		c-0.1,0-0.1-0.1-0.2-0.1c-0.4-0.2-0.7-0.3-1.1-0.5c-0.1,0-0.2-0.1-0.3-0.1c-0.3-0.2-0.7-0.4-1-0.6c-0.1-0.1-0.2-0.1-0.3-0.2
		c-0.2-0.2-0.5-0.3-0.7-0.5c-0.2-0.1-0.3-0.2-0.5-0.3c-0.2-0.2-0.4-0.3-0.6-0.5c-0.1-0.1-0.3-0.2-0.4-0.4c-0.2-0.2-0.4-0.4-0.6-0.6
		c-0.2-0.1-0.3-0.3-0.4-0.5C7.1,32,7,31.9,6.9,31.8c-0.2-0.2-0.4-0.5-0.6-0.8c-0.1-0.1-0.2-0.2-0.3-0.4c-0.2-0.3-0.4-0.5-0.6-0.8
		c-0.1-0.1-0.2-0.3-0.3-0.4c-0.1-0.2-0.2-0.3-0.3-0.5c-0.1-0.3-0.3-0.5-0.4-0.8c-0.1-0.2-0.2-0.3-0.2-0.5C4,27.3,3.9,27,3.7,26.7
		c0-0.1-0.1-0.2-0.1-0.4c-0.1-0.3-0.2-0.6-0.3-1c0,0,0-0.1,0-0.1c0.1-0.1,0.2-0.1,0.2-0.2l0.3-0.3c0.7-0.7,2-0.7,2.7,0L6.8,25
		c0.6,0.6,1.4,0.9,2.2,0.9c0.8,0,1.6-0.3,2.2-0.9l0.3-0.3c0.7-0.7,2-0.7,2.7,0l0.3,0.3c0.5,0.5,1.2,0.8,1.9,0.9l-1.2,3
		c-0.6,1.5-0.4,3.3,0.5,4.7c0.9,1.4,2.5,2.2,4.2,2.2c1.7,0,3.2-0.8,4.2-2.2c0.9-1.4,1.1-3.1,0.5-4.7l0,0c0,0,0,0,0,0l0,0l-1.3-3.3
		C24.5,26.2,26,26,27,25c0.7-0.8,2-0.7,2.7,0c0.6,0.6,1.4,0.9,2.2,0.9c0.8,0,1.6-0.3,2.2-0.9l0.3-0.3c0.7-0.7,1.8-0.7,2.5-0.2
		c0,0.1,0,0.1,0,0.2c-0.1,0.3-0.2,0.7-0.3,1c-0.1,0.2-0.1,0.4-0.2,0.6c-0.1,0.2-0.1,0.4-0.2,0.6c-2,4.9-6.2,8.6-11.3,10.1
		c0,0-0.1,0-0.1,0c0,0,0,0,0,0c-0.2,0.1-0.5,0.1-0.7,0.2c0,0,0,0-0.1,0c-0.3,0.1-0.6,0.1-0.8,0.2c0,0-0.1,0-0.1,0
		c-0.1,0-0.3,0-0.4,0.1c-0.4,0.1-0.7,0.1-1.1,0.1c-0.1,0-0.2,0-0.3,0c-0.4,0-0.9,0.1-1.3,0.1C19.6,37.7,19.2,37.6,18.7,37.6
		L18.7,37.6z M22.5,23.5L22.5,23.5c0-0.9,0.7-1.6,1.6-1.6h13.4c0,0.4-0.1,0.8-0.2,1.3c-1.2-0.6-2.7-0.4-3.7,0.6l-0.3,0.3
		c-0.7,0.7-2,0.7-2.7,0c-1.2-1.2-3.3-1.2-4.5,0c-0.7,0.8-2,0.8-2.7,0l-0.7-0.7L22.5,23.5z M2.5,20.1c0-9.7,7.9-17.6,17.6-17.6
		c9.7,0,17.6,7.9,17.6,17.6c0,0.2,0,0.4,0,0.6H24.1c-1.6,0-2.8,1.3-2.8,2.8V24l2.2,5.4c0.5,1.2,0.3,2.5-0.4,3.5
		c-0.7,1-1.9,1.7-3.1,1.7c-1.3,0-2.4-0.6-3.1-1.7c-0.7-1-0.8-2.3-0.4-3.5l2.2-5.4v-0.4c0-1.6-1.3-2.8-2.8-2.8H2.5
		C2.5,20.5,2.5,20.3,2.5,20.1L2.5,20.1z M2.5,20.1"/>
</g>
</svg>
